<?xml version="1.0" encoding="UTF-8" standalone="no"?>
<!-- Created with Inkscape (http://www.inkscape.org/) -->

<svg
   xmlns:dc="http://purl.org/dc/elements/1.1/"
   xmlns:cc="http://creativecommons.org/ns#"
   xmlns:rdf="http://www.w3.org/1999/02/22-rdf-syntax-ns#"
   xmlns:svg="http://www.w3.org/2000/svg"
   xmlns="http://www.w3.org/2000/svg"
   xmlns:sodipodi="http://sodipodi.sourceforge.net/DTD/sodipodi-0.dtd"
   xmlns:inkscape="http://www.inkscape.org/namespaces/inkscape"
   id="svg2"
   version="1.1"
   inkscape:version="0.48.4 r9939"
   width="673.3"
   height="242.3625"
   xml:space="preserve"
   sodipodi:docname="ieee-computer-society-seeklogo.com.eps"><metadata
     id="metadata8"><rdf:RDF><cc:Work
         rdf:about=""><dc:format>image/svg+xml</dc:format><dc:type
           rdf:resource="http://purl.org/dc/dcmitype/StillImage" /><dc:title></dc:title></cc:Work></rdf:RDF></metadata><defs
     id="defs6" /><sodipodi:namedview
     pagecolor="#ffffff"
     bordercolor="#666666"
     borderopacity="1"
     objecttolerance="10"
     gridtolerance="10"
     guidetolerance="10"
     inkscape:pageopacity="0"
     inkscape:pageshadow="2"
     inkscape:window-width="1320"
     inkscape:window-height="747"
     id="namedview4"
     showgrid="false"
     inkscape:zoom="2.4028818"
     inkscape:cx="349.135"
     inkscape:cy="76.463422"
     inkscape:window-x="46"
     inkscape:window-y="21"
     inkscape:window-maximized="1"
     inkscape:current-layer="g12" /><g
     id="g10"
     inkscape:groupmode="layer"
     inkscape:label="ink_ext_XXXXXX"
     transform="matrix(1.25,0,0,-1.25,0,242.3625)"><g
       id="g12"
       transform="scale(0.1,0.1)"><path
         d="m 1871.05,1494.73 40.4102,0 0,444.176 -40.4102,0 0,-444.176 z"
         style="fill:#3e6b91;fill-opacity:1;fill-rule:evenodd;stroke:none"
         id="path14" /><path
         d="m 2286.25,1898.48 0,40.43 -262.51,0 0,-444.18 262.51,0 0,40.41 -222.08,0 0,168.75 222.08,0 0,40.43 -222.08,0 0,154.16 222.08,0"
         style="fill:#3e6b91;fill-opacity:1;fill-rule:evenodd;stroke:none"
         id="path16" /><path
         d="m 2655.96,1898.48 0,40.43 -262.49,0 0,-444.18 262.49,0 0,40.41 -222.08,0 0,168.75 222.08,0 0,40.43 -222.08,0 0,154.16 222.08,0"
         style="fill:#3e6b91;fill-opacity:1;fill-rule:evenodd;stroke:none"
         id="path18" /><path
         d="m 3031.69,1898.48 0,40.43 -262.53,0 0,-444.18 262.53,0 0,40.41 -222.1,0 0,168.75 222.1,0 0,40.43 -222.1,0 0,154.16 222.1,0"
         style="fill:#3e6b91;fill-opacity:1;fill-rule:evenodd;stroke:none"
         id="path20" /><path
         d="m 450.535,672.969 c -224.031,0 -405.6405,181.601 -405.6405,405.641 0,224.03 181.6095,405.65 405.6405,405.65 224.055,0 405.656,-181.62 405.656,-405.65 0,-224.04 -181.601,-405.641 -405.656,-405.641 z m 0,857.661 C 201.711,1530.63 0,1328.93 0,1080.09 0,831.25 201.711,629.531 450.535,629.531 c 248.828,0 450.57,201.719 450.57,450.559 0,248.84 -201.742,450.54 -450.57,450.54"
         style="fill:#a5bf20;fill-opacity:1;fill-rule:nonzero;stroke:none"
         id="path22" /><path
         d="m 519.863,934.141 -156.472,0 c -77.727,0 -140.727,63 -140.727,140.719 0,77.72 63,140.69 140.727,140.69 l 156.472,0 c 77.696,0 140.696,-62.97 140.696,-140.69 0,-77.719 -63,-140.719 -140.696,-140.719 z m 99.817,330.819 -338.285,0 c -104.989,0 -190.0981,-85.11 -190.0981,-190.1 0,-104.993 85.1091,-190.098 190.0981,-190.098 l 338.285,0 c 105.008,0 190.117,85.105 190.117,190.098 0,104.99 -85.109,190.1 -190.117,190.1"
         style="fill:#a5bf20;fill-opacity:1;fill-rule:nonzero;stroke:none"
         id="path24" /><path
         d="m 275.41,1354.02 c 0,0 131.66,2.1 175.149,88.32 l 56.863,0 0,-557.578 c 0,0 -5.156,-102.532 107.781,-102.532 l 0,-34.441 -339.793,0 0,34.441 c 0,0 107.793,22.442 107.793,102.532 0,80.078 0,428.848 0,428.848 l -107.793,0 0,40.41"
         style="fill:#a5bf20;fill-opacity:1;fill-rule:nonzero;stroke:none"
         id="path26" /><path
         d="m 1335.42,902.012 c -22.37,-22.133 -44.57,-37.871 -66.34,-47.383 -21.8,-9.418 -47.67,-14.219 -77.57,-14.219 -67.9,0 -118.01,23.36 -150.41,70.141 -15.6,21.73 -27.01,46.504 -34.16,74.277 -7.135,27.692 -10.71,59.312 -10.71,94.822 0,52.92 7.46,95.61 22.42,127.99 15.02,32.39 33.64,58.56 56.06,78.48 35.5,31.78 76.05,47.67 121.53,47.67 25.56,0 48.52,-4.18 69.11,-12.61 20.56,-8.38 39.85,-20.69 57.88,-36.88 l -44.78,-58.86 c -15.59,13.68 -29.45,23.18 -41.6,28.51 -12.16,5.24 -25.7,7.91 -40.61,7.91 -18.11,0 -34.3,-4.33 -48.69,-13.07 -14.29,-8.67 -25.54,-21.07 -33.6,-37.27 -8.07,-16.13 -13.83,-35.89 -17.26,-59.18 -3.43,-23.35 -5.16,-51.1 -5.16,-83.42 0,-32.93 3.13,-60.22 9.35,-82.029 6.24,-21.77 15.58,-39.118 27.99,-52.18 17.49,-18.621 39.93,-27.93 67.37,-27.93 36.05,0 68.46,16.129 97.17,48.61 l 42.01,-53.379"
         style="fill:#3e6b91;fill-opacity:1;fill-rule:nonzero;stroke:none"
         id="path28" /><path
         d="m 1671.57,1079.24 c 0,36.07 -2.43,66.21 -7.46,90.49 -4.99,24.22 -12.27,43.5 -21.85,57.77 -9.71,14.36 -21.16,24.61 -34.52,30.85 -13.43,6.2 -28.48,9.32 -45.26,9.32 -37.27,0 -64.21,-13.68 -80.68,-41.08 -16.49,-27.31 -24.77,-70.59 -24.77,-129.66 0,-35.45 2.36,-65.29 7,-89.51 4.71,-24.279 11.57,-43.861 20.56,-58.846 9.04,-14.863 20.35,-25.644 34.1,-32.164 13.65,-6.531 29.46,-9.789 47.52,-9.789 32.34,0 58.01,13.59 76.98,40.606 18.97,27.027 28.38,71.053 28.38,132.013 z m 96.13,3.73 c 0,-37.36 -4.87,-70.91 -14.43,-100.74 -9.71,-29.847 -23.39,-55.199 -41.07,-76.082 -17.7,-20.796 -39.03,-36.949 -63.85,-48.507 -24.91,-11.469 -52.92,-17.231 -83.97,-17.231 -31.12,0 -59.28,5.762 -84.41,17.231 -25.21,11.558 -46.52,28 -63.91,49.507 -17.47,21.403 -30.83,47.383 -40.17,77.875 -9.34,30.437 -13.99,64.687 -13.99,102.587 0,37.94 4.65,71.95 13.99,102.17 9.34,30.14 22.7,55.95 40.17,77.43 17.39,21.4 38.41,37.88 62.91,49.43 24.55,11.45 52.38,17.24 83.51,17.24 34.25,0 64.17,-6.55 89.97,-19.6 25.82,-13.05 47.3,-30.74 64.39,-53.14 17.12,-22.39 29.91,-48.81 38.26,-79.34 8.43,-30.43 12.6,-63.39 12.6,-98.83"
         style="fill:#3e6b91;fill-opacity:1;fill-rule:nonzero;stroke:none"
         id="path30" /><path
         d="m 2345.43,840.41 0,343.45 c 0,27.49 -4.36,46.54 -13.22,57.45 -8.92,10.84 -23.55,16.28 -43.77,16.28 -22.27,0 -41.73,-6.24 -58.56,-18.68 -16.82,-12.47 -34.42,-27.95 -52.81,-46.39 l 0,-352.11 -87.04,0 0,341.59 c 0,26.77 -4.36,45.76 -12.9,56.91 -8.66,11.14 -24.15,16.73 -46.44,16.73 -16.64,0 -33.94,-4.29 -52.15,-12.92 -18.21,-8.57 -37.47,-22.8 -57.92,-42.58 l 0,-359.73 -87.07,0 0,352.11 c 0,17.18 -0.3,31.36 -0.91,42.57 -0.61,11.14 -1.56,21.03 -2.82,29.66 -1.29,8.58 -3.1,16.58 -5.29,23.91 -2.25,7.32 -4.98,15.11 -8.07,23.43 l 82.21,20.1 c 5.12,-8.33 9.11,-18.15 11.99,-29.68 2.8,-11.45 4.27,-23.89 4.27,-37.29 20.4,21.66 42.45,38.4 66.04,50.23 23.58,11.75 46.47,17.67 68.89,17.67 22.29,0 43.75,-6.07 64.56,-18.15 20.68,-12.16 37.11,-31.28 49.28,-57.38 47.79,50.36 96.62,75.53 146.37,75.53 37.62,0 67.44,-11.44 89.47,-34.42 22.02,-22.97 33,-56.46 33,-100.44 l 0,-357.85 -87.11,0"
         style="fill:#3e6b91;fill-opacity:1;fill-rule:nonzero;stroke:none"
         id="path32" /><path
         d="m 2797.08,1081.25 c 0,56.2 -7.32,99.96 -21.85,131.25 -14.53,31.24 -40.53,46.85 -77.92,46.85 -42.38,0 -80.38,-19.56 -113.93,-58.67 l 0,-241.535 c 14.52,-15.825 30.78,-28.446 48.45,-37.934 17.71,-9.43 35.48,-14.262 53.17,-14.262 38.57,0 67.03,14.551 85.03,43.598 18.02,29.074 27.05,72.673 27.05,130.703 z m 93.05,11 c 0,-37.42 -3.95,-71.59 -11.79,-102.652 -7.89,-31 -19.74,-57.899 -35.56,-80.688 -15.78,-22.801 -35.11,-40.512 -58.14,-53.211 -23.11,-12.648 -49.78,-19 -80.08,-19 -22.11,0 -43.57,4.102 -64.36,12.379 -20.8,8.184 -40.43,20.551 -58.69,37.031 1.25,-7.597 1.87,-16.168 1.87,-25.679 0,-9.489 0,-18.61 0,-27.5 l 0,-167.192 -86.42,-19.937 0,559.439 c 0,28.53 -0.92,51.24 -2.86,68.42 -1.95,17.07 -4.4,33.23 -7.59,48.38 l 85.41,14.29 c 1.87,-7.11 3.43,-15.29 4.34,-24.59 0.92,-9.25 1.4,-24.17 1.4,-44.65 18.31,22.41 38.92,39.26 62.04,50.46 23.04,11.22 47.17,16.85 72.45,16.85 23.97,0 46.82,-4.94 68.63,-14.68 21.79,-9.88 40.71,-24.89 56.89,-45.13 16.08,-20.27 28.83,-45.62 38.33,-75.99 9.42,-30.39 14.13,-65.86 14.13,-106.35"
         style="fill:#3e6b91;fill-opacity:1;fill-rule:nonzero;stroke:none"
         id="path34" /><path
         d="m 3283.98,834.18 c -11.87,8.789 -21.11,18.14 -27.65,28.121 -6.55,10 -12.06,23.09 -16.4,39.32 -36.89,-44.961 -83.95,-67.441 -141.42,-67.441 -29.95,0 -56.03,6.25 -78.18,18.75 -22.11,12.519 -38.26,29.648 -48.17,51.519 -4.43,9.379 -7.41,20.571 -8.93,33.672 -1.58,13.109 -2.34,28.133 -2.34,44.977 l 0,333.312 85.19,16.9 0,-326.82 c 0,-23.705 1.37,-41.388 4.25,-52.896 2.76,-11.582 8.55,-21.403 17.31,-29.492 6.19,-5.622 14.17,-10.512 23.83,-14.532 9.7,-4.058 19.82,-6.109 30.49,-6.109 21.2,0 41.77,7.16 61.74,21.559 19.96,14.335 35.05,31.839 44.96,52.414 l 0,337.126 85.2,16.87 0,-353.059 c 0,-48.68 9.75,-81.16 29.11,-97.32 l -58.99,-46.871"
         style="fill:#3e6b91;fill-opacity:1;fill-rule:nonzero;stroke:none"
         id="path36" /><path
         d="m 3620.14,1254.3 -92.09,0 0,-281.073 c 0,-29.243 4.16,-49.067 12.57,-59.618 8.33,-10.507 24.32,-15.82 47.87,-15.82 14.91,0 29.52,3.109 43.79,9.32 L 3642.51,855 c -26.05,-13.031 -54.33,-19.531 -84.7,-19.531 -15.52,0 -30.83,2.191 -45.81,6.5 -15,4.32 -26.36,9.922 -33.86,16.742 -4.99,4.301 -9.54,8.551 -13.64,12.559 -4.09,4.019 -7.64,9.312 -10.81,15.859 -3.21,6.5 -5.61,14.98 -7.59,25.582 -1.82,10.508 -2.73,24.16 -2.73,40.961 l 0,300.628 -55.89,0 0,60.43 55.89,0 c 0,18.04 0.3,37.88 0.91,59.63 0.6,21.65 2.15,41.48 4.64,59.52 l 89.36,20.44 c -1.28,-8.62 -2.34,-18.38 -3.28,-29.3 -0.89,-10.82 -1.71,-22.49 -2.31,-34.84 -0.61,-12.42 -1.3,-25.15 -1.91,-38.18 -0.61,-13.01 -0.92,-25.45 -0.92,-37.27 l 113.61,0 -23.33,-60.43"
         style="fill:#3e6b91;fill-opacity:1;fill-rule:nonzero;stroke:none"
         id="path38" /><path
         d="m 3948.94,1127.06 c 0,46.38 -9.78,81.82 -29.29,106.23 -7.61,9.41 -17.08,17.26 -28.49,23.5 -11.32,6.31 -24.56,9.39 -39.73,9.39 -33.43,0 -58.38,-12.32 -74.73,-37.12 -16.48,-24.74 -24.63,-58.7 -24.63,-102 l 196.87,0 z m -197.82,-64.32 0,-11.38 c 0,-41.69 6.63,-73.18 19.9,-94.669 12.61,-18.863 28.18,-32.98 46.82,-42.14 18.65,-9.082 39.29,-13.711 62,-13.711 43.54,0 82.35,15.172 116.38,45.449 l 33.13,-52.051 c -46.05,-40.386 -100.6,-60.547 -163.66,-60.547 -32.82,0 -62.32,5.84 -88.51,17.457 -26.19,11.723 -48.46,28.282 -66.69,49.692 -18.34,21.5 -32.36,47.676 -42.14,78.566 -9.8,30.894 -14.7,65.934 -14.7,105.064 0,41.06 4.45,75.87 13.23,104.62 8.84,28.72 23.41,55.06 43.61,79.02 37.19,43.53 84.85,65.31 142.87,65.31 52.37,0 95.27,-17.03 128.68,-51.13 10.13,-10.72 18.82,-22.21 26.06,-34.52 7.24,-12.34 13.22,-26.49 18.01,-42.6 4.71,-16.08 8.18,-34.58 10.41,-55.37 2.23,-20.81 3.31,-44.83 3.31,-71.95 l 0,-15.11 -288.71,0"
         style="fill:#3e6b91;fill-opacity:1;fill-rule:nonzero;stroke:none"
         id="path40" /><path
         d="m 4322.53,1241.24 c -4.28,1.22 -8.12,2.35 -11.51,3.24 -3.41,0.91 -7.61,1.36 -12.49,1.36 -12.96,0 -25.3,-2.4 -36.97,-7.39 -11.75,-4.97 -22,-11.73 -30.56,-20.32 -8.59,-8.66 -15.61,-18.68 -20.81,-30.13 -5.25,-11.36 -7.9,-23.54 -7.9,-36.51 l 0,-298.818 -84.15,0 0,340.468 c 0,28.38 -1.61,51.18 -4.6,68.44 -3.16,17.3 -7.46,32.97 -12.96,47.19 l 81.65,21.32 c 4.2,-8.66 7.82,-19.82 10.9,-33.37 3.07,-13.55 4.58,-26.19 4.58,-37.94 l 0,-8.28 c 18.53,27.1 37.92,47.28 58.27,60.62 20.33,13.24 42.85,19.88 67.55,19.88 11.05,0 20.68,-1.59 28.66,-4.69 l -29.66,-85.07"
         style="fill:#3e6b91;fill-opacity:1;fill-rule:nonzero;stroke:none"
         id="path42" /><path
         d="m 3216.04,341.832 c 0,-23.512 -4.55,-44.801 -13.63,-63.652 -9.06,-18.899 -21.78,-35.352 -38.04,-49.328 -16.28,-13.954 -35.67,-24.614 -58.06,-32.09 -22.34,-7.43 -47.18,-11.141 -74.49,-11.141 -28.44,0 -57.82,4.16 -87.8,12.578 -30.13,8.321 -58.79,20.571 -86.13,36.699 l 30.74,61.391 c 22.31,-12.418 46.31,-23.238 72.04,-32.539 25.76,-9.32 51.64,-13.949 77.68,-13.949 26.01,0 46.97,6.82 62.8,20.508 15.82,13.652 23.78,32.031 23.78,54.961 0,19.902 -6.22,35.859 -18.62,47.968 -12.28,12.192 -32.11,20.672 -59.27,25.684 l -56.54,11.219 c -37.07,7.398 -65.17,22.14 -84.33,44.25 -19.14,22.031 -28.75,50.488 -28.75,85.32 0,21.09 4.08,40.617 12.12,58.629 8.09,18.012 19.53,33.48 34.42,46.172 14.91,12.726 32.55,22.636 53.06,29.84 20.46,7.109 43.4,10.726 68.8,10.726 28.54,0 55.33,-3.617 80.45,-10.879 25.15,-7.211 47.25,-16.508 66.44,-27.777 l -28.74,-60.852 c -21.8,10.5 -41.62,18.692 -59.58,24.59 -17.94,5.91 -36.24,8.84 -54.84,8.84 -24.84,0 -44.52,-6.34 -59.05,-19.059 -14.61,-12.711 -21.9,-29.589 -21.9,-50.64 0,-16.801 4.8,-30.102 14.49,-40.039 9.54,-9.91 26.79,-17.621 51.6,-23.211 l 60.43,-13.942 c 42.82,-9.918 73.62,-26.429 92.53,-49.359 18.85,-22.93 28.39,-49.859 28.39,-80.918"
         style="fill:#3e6b91;fill-opacity:1;fill-rule:nonzero;stroke:none"
         id="path44" /><path
         d="m 3579.38,427.359 c 0,36.512 -2.43,67.012 -7.5,91.621 -5.07,24.5 -12.45,44.008 -22.13,58.442 -9.85,14.527 -21.45,24.898 -34.97,31.207 -13.62,6.293 -28.83,9.453 -45.79,9.453 -37.74,0 -65.03,-13.82 -81.69,-41.582 -16.67,-27.648 -25.05,-71.441 -25.05,-131.23 0,-35.879 2.38,-66.071 7.07,-90.598 4.76,-24.551 11.7,-44.422 20.83,-59.551 9.13,-15.062 20.57,-25.961 34.49,-32.562 13.83,-6.637 29.82,-9.918 48.12,-9.918 32.72,0 58.71,13.73 77.91,41.109 19.21,27.34 28.71,71.91 28.71,133.609 z m 97.32,3.77 c 0,-37.809 -4.92,-71.758 -14.59,-101.969 -9.84,-30.199 -23.67,-55.859 -41.58,-76.988 -17.91,-21.043 -39.5,-37.41 -64.65,-49.102 -25.19,-11.629 -53.55,-17.449 -84.98,-17.449 -31.52,0 -60.01,5.82 -85.46,17.449 -25.49,11.692 -47.08,28.352 -64.69,50.09 -17.64,21.68 -31.17,47.969 -40.62,78.852 -9.46,30.816 -14.16,65.449 -14.16,103.808 0,38.442 4.7,72.852 14.16,103.418 9.45,30.5 22.98,56.66 40.62,78.383 17.61,21.68 38.9,38.34 63.71,50.039 24.81,11.578 53.01,17.418 84.53,17.418 34.64,0 64.93,-6.59 91.05,-19.808 26.15,-13.239 47.87,-31.129 65.15,-53.79 17.36,-22.671 30.28,-49.41 38.74,-80.308 8.54,-30.801 12.77,-64.16 12.77,-100.043"
         style="fill:#3e6b91;fill-opacity:1;fill-rule:nonzero;stroke:none"
         id="path46" /><path
         d="m 4063.77,246.801 c -22.74,-22.469 -45.2,-38.442 -67.33,-48.071 -22.07,-9.57 -48.32,-14.429 -78.7,-14.429 -68.85,0 -119.79,23.687 -152.64,71.129 -15.75,22.07 -27.34,47.23 -34.57,75.39 -7.27,28.102 -10.95,60.192 -10.95,96.211 0,53.731 7.56,97.008 22.82,129.879 15.14,32.871 34.12,59.399 56.8,79.629 36.12,32.25 77.18,48.383 123.31,48.383 25.93,0 49.3,-4.242 70.2,-12.813 20.85,-8.5 40.45,-20.98 58.75,-37.418 l -45.48,-59.75 c -15.87,13.911 -29.93,23.547 -42.28,28.95 -12.27,5.328 -26.05,8.019 -41.19,8.019 -18.38,0 -34.73,-4.39 -49.32,-13.262 -14.57,-8.808 -25.9,-21.367 -34.19,-37.808 -8.15,-16.352 -14.04,-36.43 -17.43,-60.039 -3.55,-23.672 -5.24,-51.86 -5.24,-84.629 0,-33.402 3.07,-61.113 9.4,-83.262 6.34,-22.051 15.92,-39.648 28.49,-52.93 17.65,-18.929 40.5,-28.32 68.29,-28.32 36.66,0 69.5,16.371 98.61,49.32 l 42.65,-54.179"
         style="fill:#3e6b91;fill-opacity:1;fill-rule:nonzero;stroke:none"
         id="path48" /><path
         d="m 4117.97,199.199 0,464.289 88.53,14.032 0,-478.321 -88.53,0"
         style="fill:#3e6b91;fill-opacity:1;fill-rule:nonzero;stroke:none"
         id="path50" /><path
         d="m 4574.17,473.672 c 0,45.859 -9.62,80.859 -28.96,105.019 -7.46,9.297 -16.91,17.047 -28.09,23.219 -11.19,6.25 -24.29,9.281 -39.29,9.281 -33.12,0 -57.73,-12.152 -73.96,-36.703 -16.22,-24.429 -24.28,-58.027 -24.28,-100.816 l 194.58,0 z m -195.59,-63.57 0,-11.293 c 0,-41.188 6.56,-72.348 19.67,-93.559 12.49,-18.691 27.94,-32.609 46.37,-41.68 18.37,-8.98 38.85,-13.531 61.31,-13.531 43.01,0 81.34,15 115.05,44.902 l 32.75,-51.461 c -45.52,-39.91 -99.52,-59.871 -161.83,-59.871 -32.45,0 -61.68,5.801 -87.55,17.27 -25.89,11.601 -47.83,27.973 -65.95,49.16 -18.13,21.231 -32,47.133 -41.58,77.652 -9.76,30.528 -14.55,65.18 -14.55,103.868 0,40.589 4.36,75.019 13.09,103.421 8.76,28.418 23.09,54.45 43.04,78.122 36.85,43.027 83.89,64.589 141.32,64.589 51.79,0 94.13,-16.832 127.25,-50.562 9.97,-10.609 18.5,-21.938 25.67,-34.117 7.22,-12.192 13.11,-26.192 17.8,-42.133 4.73,-15.899 8.1,-34.18 10.36,-54.731 2.13,-20.578 3.21,-44.328 3.21,-71.148 l 0,-14.898 -285.43,0"
         style="fill:#3e6b91;fill-opacity:1;fill-rule:nonzero;stroke:none"
         id="path52" /><path
         d="m 4921.25,601.832 -91.33,0 0,-278.762 c 0,-28.992 4.18,-48.679 12.46,-59.129 8.28,-10.453 24.19,-15.679 47.56,-15.679 14.79,0 29.21,3.07 43.32,9.218 l 10.24,-51.679 c -25.85,-12.91 -53.95,-19.36 -83.99,-19.36 -15.48,0 -30.56,2.168 -45.53,6.45 -14.87,4.281 -26.05,9.839 -33.51,16.597 -4.94,4.282 -9.45,8.5 -13.51,12.481 -4.05,3.972 -7.65,9.242 -10.82,15.691 -3.07,6.461 -5.54,14.879 -7.41,25.41 -1.9,10.41 -2.82,23.942 -2.82,40.621 l 0,298.141 -55.41,0 0,59.93 55.41,0 c 0,17.867 0.33,37.558 0.92,59.117 0.6,21.5 2.16,41.152 4.67,59.043 l 88.63,20.269 c -1.28,-8.57 -2.39,-18.242 -3.29,-29.082 -0.92,-10.718 -1.65,-22.3 -2.26,-34.55 -0.61,-12.278 -1.28,-24.918 -1.88,-37.848 -0.59,-12.91 -0.92,-25.231 -0.92,-36.949 l 112.6,0 -23.13,-59.93"
         style="fill:#3e6b91;fill-opacity:1;fill-rule:nonzero;stroke:none"
         id="path54" /><path
         d="m 5224.49,182.262 c -11.05,-33.301 -22.96,-61.992 -35.59,-85.9925 -12.67,-24.1211 -27.06,-42.9297 -43.1,-56.4882 -11.05,-9.25 -24.24,-17.3829 -39.31,-24.5508 C 5091.39,8.16016 5075.77,3.10156 5059.82,0 l -26.88,55.5313 c 16.65,4.289 31.3,10.6171 43.96,18.957 12.57,8.2812 24.76,19.5898 36.51,33.7497 7.41,9.262 13.88,20.864 19.47,34.692 5.55,13.89 11.7,32.539 18.51,56.05 l -33.29,-4.66 c -6.17,27.789 -12.8,53.551 -19.87,77.258 -7.15,23.711 -15.37,49.551 -24.56,77.274 l -102.73,304.449 86.02,19.429 88.84,-291.5 c 1.91,-7.359 4.07,-15.742 6.5,-24.921 2.48,-9.297 4.97,-18.848 7.37,-28.688 2.56,-9.949 4.81,-19.672 6.98,-29.16 2.22,-9.629 4.17,-18.359 5.99,-26.43 l 5.54,0 c 3.77,16.039 8.23,33.949 13.42,53.688 5.28,19.75 11.3,40.082 18.07,61.082 l 82.39,273.879 94.38,0 -161.95,-478.418"
         style="fill:#3e6b91;fill-opacity:1;fill-rule:nonzero;stroke:none"
         id="path56" /></g></g></svg>